<?xml version="1.0" standalone="no"?>
<!DOCTYPE svg PUBLIC "-//W3C//DTD SVG 20010904//EN"
 "http://www.w3.org/TR/2001/REC-SVG-20010904/DTD/svg10.dtd">
<svg version="1.0" xmlns="http://www.w3.org/2000/svg"
 width="969.000000pt" height="127.000000pt" viewBox="0 0 969.000000 127.000000"
 preserveAspectRatio="xMidYMid meet">

<g transform="translate(0.000000,127.000000) scale(0.100000,-0.100000)"
fill="#000000" stroke="none">
<path d="M420 1210 c-209 -39 -355 -195 -376 -402 -24 -236 149 -450 391 -487
144 -22 305 30 398 127 l28 29 -64 52 c-68 54 -81 59 -94 38 -14 -23 -80 -67
-114 -78 -104 -31 -221 2 -293 82 -164 183 -42 481 199 483 74 0 123 -16 181
-60 l45 -35 65 48 c60 44 63 48 50 67 -22 34 -132 104 -188 121 -66 19 -169
26 -228 15z"/>
<path d="M6881 1209 c-209 -35 -371 -226 -371 -437 1 -227 153 -405 381 -448
70 -14 88 -14 158 0 43 8 103 27 132 42 62 31 139 91 139 108 0 10 -74 72
-118 100 -10 5 -24 -2 -45 -22 -138 -133 -379 -76 -447 106 -31 82 -27 165 11
240 52 104 131 155 244 156 78 0 140 -22 189 -68 15 -15 31 -26 35 -24 3 2 34
23 69 48 l62 44 -42 44 c-53 53 -143 97 -228 111 -74 12 -94 12 -169 0z"/>
<path d="M5119 1181 c-20 -20 -29 -39 -29 -61 0 -48 47 -90 100 -90 53 0 100
42 100 90 0 22 -9 41 -29 61 -41 41 -101 41 -142 0z"/>
<path d="M7427 1199 c-11 -6 -25 -26 -33 -45 -12 -29 -12 -39 0 -68 17 -41 42
-56 93 -56 83 0 125 101 67 155 -29 27 -93 34 -127 14z"/>
<path d="M8750 765 l0 -435 75 0 75 0 0 435 0 435 -75 0 -75 0 0 -435z"/>
<path d="M5460 1025 l0 -85 -55 0 -55 0 0 -70 0 -70 55 0 55 0 0 -235 0 -235
75 0 75 0 0 235 0 235 70 0 70 0 0 70 0 70 -70 0 -70 0 0 85 0 85 -75 0 -75 0
0 -85z"/>
<path d="M1184 946 c-104 -21 -184 -81 -236 -179 -19 -35 -23 -58 -23 -132 0
-81 3 -95 29 -143 71 -128 213 -197 353 -171 119 22 196 77 245 176 28 56 32
77 32 139 0 63 -4 81 -34 140 -68 132 -213 200 -366 170z m163 -162 c55 -41
68 -70 68 -149 0 -79 -13 -108 -68 -149 -42 -31 -132 -33 -181 -4 -114 67
-112 244 5 306 54 29 134 27 176 -4z"/>
<path d="M1906 944 c-22 -8 -47 -21 -56 -29 -22 -20 -30 -19 -30 5 0 18 -7 20
-70 20 l-70 0 0 -305 0 -305 75 0 75 0 0 190 c0 170 2 195 20 229 35 69 129
87 184 36 38 -35 46 -85 46 -277 l0 -178 74 0 75 0 3 209 c3 206 3 210 27 235
14 15 42 31 62 37 31 10 43 9 76 -7 66 -33 73 -60 73 -281 l0 -193 75 0 75 0
0 218 c0 119 -5 233 -10 253 -24 84 -131 159 -229 159 -54 0 -126 -24 -167
-55 l-35 -27 -34 27 c-70 53 -161 68 -239 39z"/>
<path d="M2957 940 c-27 -10 -55 -24 -63 -30 -11 -10 -14 -9 -14 9 0 19 -5 21
-70 21 l-70 0 0 -305 0 -305 75 0 75 0 0 199 c0 190 1 199 23 232 46 68 138
71 192 8 25 -30 25 -31 25 -235 l0 -204 80 0 80 0 0 204 c0 204 0 205 25 235
55 64 149 60 189 -9 19 -31 21 -55 24 -232 l4 -198 74 0 75 0 -3 228 c-3 222
-4 229 -29 277 -31 62 -86 101 -160 117 -85 18 -153 0 -240 -63 -13 -10 -23
-6 -55 19 -68 53 -153 65 -237 32z"/>
<path d="M4676 945 c-22 -9 -47 -22 -56 -30 -22 -20 -30 -19 -30 5 0 18 -7 20
-70 20 l-70 0 0 -305 0 -305 74 0 75 0 3 203 c3 227 5 234 75 268 37 18 48 19
78 9 19 -6 46 -25 60 -41 25 -30 25 -31 25 -235 l0 -204 81 0 80 0 -3 228 c-3
248 -8 270 -69 331 -61 62 -173 86 -253 56z"/>
<path d="M7905 948 c-16 -6 -42 -22 -57 -36 l-28 -26 0 27 c0 27 0 27 -75 27
l-75 0 0 -305 0 -306 78 3 77 3 5 207 c5 200 6 207 29 232 18 19 35 26 73 28
l49 3 29 65 c16 36 25 69 20 74 -13 13 -92 16 -125 4z"/>
<path d="M8302 945 c-150 -33 -249 -142 -260 -285 -5 -80 8 -134 51 -196 104
-156 323 -193 483 -84 39 27 94 95 94 116 0 6 -30 24 -67 41 l-67 30 -21 -30
c-33 -49 -69 -70 -129 -75 -66 -5 -125 23 -159 78 -31 50 -31 141 1 192 58 93
206 104 273 20 l24 -30 67 37 68 38 -28 36 c-69 93 -204 139 -330 112z"/>
<path d="M9250 946 c-152 -33 -251 -153 -251 -304 0 -84 13 -130 53 -189 87
-129 289 -174 444 -101 37 17 104 70 104 83 0 2 -26 24 -59 49 l-59 45 -18
-20 c-42 -47 -118 -67 -184 -49 -50 13 -110 68 -110 99 0 21 3 21 225 21 l225
0 6 25 c10 41 -16 151 -50 207 -63 106 -199 162 -326 134z m137 -145 c38 -18
73 -61 73 -91 0 -6 -50 -10 -145 -10 -80 0 -145 4 -145 9 0 21 49 78 80 93 45
23 84 22 137 -1z"/>
<path d="M3790 742 c0 -242 9 -284 79 -353 121 -122 360 -86 438 66 18 34 32
186 32 363 l1 122 -80 0 -80 0 0 -195 c0 -216 -6 -242 -60 -270 -37 -19 -90
-19 -118 1 -47 32 -52 60 -52 269 l0 195 -80 0 -80 0 0 -198z"/>
<path d="M5110 635 l0 -305 80 0 80 0 0 305 0 305 -80 0 -80 0 0 -305z"/>
<path d="M5793 928 c6 -13 78 -185 182 -431 l58 -139 -25 -61 c-14 -34 -42
-99 -61 -144 l-36 -83 83 0 c83 0 84 1 94 28 6 15 81 189 167 387 86 198 165
381 175 408 l20 47 -84 0 -83 0 -63 -162 c-35 -90 -72 -183 -82 -208 l-20 -45
-37 95 c-21 52 -57 146 -81 208 l-43 112 -85 0 c-63 0 -83 -3 -79 -12z"/>
<path d="M7410 635 l0 -305 75 0 75 0 0 305 0 305 -75 0 -75 0 0 -305z"/>
</g>
</svg>
